<?xml version="1.0" encoding="UTF-8"?>
<!-- Generated by Pixelmator Pro 3.6.12 -->
<svg width="122" height="41" viewBox="0 0 122 41" xmlns="http://www.w3.org/2000/svg">
       <g id="g001-copy">
        <path id="anztxt01" fill="#000000" stroke="none" d="M 76.003891 31.871262 L 66.932121 31.871262 L 70.654968 26.969177 L 60.576008 26.969177 L 56.984684 31.68924 C 55.642025 33.565048 55.512062 35.458282 55.512062 36.772171 L 55.512062 37.514942 C 55.512062 38.373383 56.043842 38.840183 56.832996 38.840183 L 76.003891 38.840183 C 76.777 38.840183 77.298798 38.413704 77.298798 37.54097 L 77.298798 33.174973 C 77.298798 32.296177 76.777 31.871262 76.003891 31.871262 M 24.361732 14.553278 C 24.217291 13.732414 23.660847 13.327662 22.936872 13.327662 L 20.373085 13.327662 C 17.705183 13.327662 15.350827 14.742544 14.031464 16.880037 L 8.84303 25.19573 L 26.249289 25.19573 L 24.361732 14.553278 Z M 53.032055 14.627068 C 53.032055 13.753944 52.511826 13.327662 51.732841 13.327662 L 46.51408 13.327662 C 45.740971 13.327662 45.219173 13.753944 45.219173 14.627068 L 45.219173 24.518133 L 40.272266 15.625645 C 39.283672 13.986856 37.618855 13.363869 35.676491 13.327662 L 31.819181 13.327662 C 31.053118 13.327662 30.529947 13.753944 30.529947 14.627068 L 30.529947 25.201599 L 37.013279 25.201599 L 38.01049 26.969177 L 30.529947 26.969177 L 30.529947 37.54097 C 30.529947 38.413704 31.053118 38.847427 31.819181 38.847427 L 37.050858 38.847427 C 37.828274 38.847427 38.342827 38.413704 38.342827 37.54097 L 38.339897 27.587662 L 43.333183 36.552372 C 44.311607 38.182552 45.9823 38.805538 47.911541 38.847427 L 51.732841 38.847427 C 52.511826 38.847427 53.032055 38.413704 53.032055 37.54097 L 53.032055 26.969177 L 46.595104 26.969177 L 45.600632 25.201599 L 53.032055 25.201599 L 53.032055 14.627068 Z M 26.558533 26.969177 L 17.962366 26.969177 L 19.861469 37.631985 C 20.007481 38.436993 20.508917 38.847427 21.24445 38.847427 L 28.227856 38.367706 L 26.558533 26.969177 Z M 1.320723 37.247581 L 1.229655 38.34148 L 2.157516 38.847427 L 8.299703 38.847427 C 9.074185 38.847427 9.766647 38.429749 10.152423 37.805393 L 16.930511 26.969177 L 7.736002 26.969177 L 1.320723 37.247581 M 57.005039 20.287968 L 65.647392 20.287968 L 61.920238 25.19573 L 71.996262 25.19573 L 75.671364 20.361561 C 76.805969 18.867216 77.068825 17.529057 77.068825 16.34532 L 77.068825 14.661711 C 77.068825 13.798767 76.547218 13.327662 75.752388 13.327662 L 57.005039 13.327662 C 56.231735 13.327662 55.714443 13.753944 55.714443 14.627068 L 55.714443 18.993065 C 55.714443 19.863052 56.231735 20.287968 57.005039 20.287968"/>
        <path id="symbol01" fill="#000000" stroke="none" d="M 99.930862 12.977922 C 101.695503 12.977922 103.704216 14.509848 103.704216 16.625616 C 103.704216 17.817963 103.32412 18.738644 102.764931 19.579666 L 102.020599 21.17951 C 101.899246 21.683886 101.633263 22.905006 103.126236 22.925358 C 104.09742 22.949823 106.487778 22.104496 108.418594 19.776173 C 109.904137 17.906036 110.787239 15.53446 110.787239 12.947586 C 110.787239 6.902279 105.932709 2 99.930862 2 C 93.927437 2 89.06411 6.902279 89.06411 12.947586 C 89.06411 15.53446 89.945854 17.906036 91.432953 19.776173 C 93.366692 22.104496 95.755501 22.949823 96.725304 22.925358 C 98.218277 22.905006 97.94799 21.683886 97.832321 21.17951 L 97.086617 19.579666 C 96.528801 18.738644 96.147331 17.817963 96.147331 16.625616 C 96.151642 14.509848 98.157616 12.977922 99.930862 12.977922 M 119.134834 24.042547 C 118.689766 23.674002 117.90921 23.136347 116.306633 22.889149 C 114.082436 22.55681 112.098 23.078415 110.902916 23.552454 C 109.332039 24.174072 107.396721 25.587391 106.059929 27.42856 C 104.649361 29.373852 103.919502 32.31068 104.619209 35.371593 L 105.350441 37.322563 C 105.768112 38.143429 106.869255 39.289581 107.833389 39.496265 C 108.59494 39.653824 109.190338 39.215797 109.482353 38.884827 L 119.582848 26.808702 C 120.366325 25.703064 119.854507 24.640675 119.134834 24.042547 M 88.954315 23.552454 C 87.759224 23.078415 85.77636 22.55681 83.552155 22.889149 C 81.949379 23.136347 81.161789 23.674002 80.722389 24.042547 C 80.002716 24.640675 79.486786 25.703064 80.274376 26.808702 L 90.369194 38.884827 C 90.661209 39.215797 91.256599 39.653824 92.01973 39.496265 C 92.98954 39.289581 94.086365 38.143429 94.50248 37.322563 L 95.239571 35.371593 C 95.937721 32.31068 95.19632 29.373852 93.798851 27.42856 C 92.460495 25.587391 90.522446 24.174072 88.954315 23.552454"/>
    </g>
</svg>
