<?xml version="1.0" encoding="UTF-8"?>
<!-- Generated by Pixelmator Pro 3.6.12 -->
<svg width="122" height="41" viewBox="0 0 122 41" xmlns="http://www.w3.org/2000/svg">
    <g id="SEKAXBIG">
        <g id="Layer">
            <path id="path1" fill="#000000" fill-rule="evenodd" stroke="none" d="M 62.616314 27.687237 C 60.368069 27.687237 58.338032 27.442574 56.532822 25.630749 L 58.86042 23.303154 C 60.044052 24.480177 61.578152 24.645489 62.669216 24.645489 C 63.90575 24.645489 65.188576 24.235514 65.188576 23.164291 C 65.188576 22.45014 64.805046 21.960815 63.687542 21.848404 L 61.439293 21.630192 C 58.86042 21.38553 57.273422 20.261406 57.273422 17.629633 C 57.273422 14.667236 59.872131 13.080236 62.781628 13.080236 C 64.996811 13.080236 66.861534 13.46376 68.230324 14.753197 L 66.041588 16.968382 C 65.221642 16.227785 63.958652 16.009571 62.722115 16.009571 C 61.300426 16.009571 60.698692 16.67082 60.698692 17.384972 C 60.698692 17.900745 60.916904 18.509094 62.179893 18.614893 L 64.428139 18.833107 C 67.245064 19.11083 68.673355 20.618481 68.673355 23.025427 C 68.673355 26.179588 65.988686 27.687237 62.616314 27.687237 Z M 73.493866 21.491329 C 73.493866 23.329603 74.617989 24.671938 76.614967 24.671938 C 78.175514 24.671938 78.949173 24.235514 79.848473 23.329603 L 82.017372 25.438988 C 80.562622 26.893738 79.167389 27.687237 76.588516 27.687237 C 73.216141 27.687237 69.989243 26.153137 69.989243 20.367205 C 69.989243 15.712009 72.508606 13.080236 76.204994 13.080236 C 80.1791 13.080236 82.427345 15.983122 82.427345 19.904329 L 82.427345 21.491329 L 73.493866 21.491329 Z M 78.592102 17.517221 C 78.201965 16.67082 77.408463 16.03602 76.204994 16.03602 C 75.001518 16.03602 74.208015 16.67082 73.824493 17.517221 L 73.493866 19.051319 L 78.916115 19.051319 L 78.592102 17.517221 Z M 87.552025 21.491329 C 87.552025 23.329603 88.676155 24.671938 90.673134 24.671938 C 92.233681 24.671938 93.000725 24.235514 93.906631 23.329603 L 96.068924 25.438988 C 94.620789 26.893738 93.218941 27.687237 90.646683 27.687237 C 87.274307 27.687237 84.040794 26.153137 84.040794 20.367205 C 84.040794 15.712009 86.560158 13.080236 90.263153 13.080236 C 94.237259 13.080236 96.478897 15.983122 96.478897 19.904329 L 96.478897 21.491329 L 87.552025 21.491329 Z M 92.643646 17.517221 C 92.260132 16.67082 91.466629 16.03602 90.263153 16.03602 C 89.05307 16.03602 88.259567 16.67082 87.876045 17.517221 L 87.552025 19.051319 L 92.974274 19.051319 L 92.643646 17.517221 Z M 107.389511 27.521923 L 103.878281 21.570679 L 102.370628 23.276701 L 102.370628 27.521923 L 98.81311 27.521923 L 98.81311 8.008453 L 102.370628 8.008453 L 102.370628 19.084381 L 107.111786 13.24555 L 111.416519 13.24555 L 106.318291 18.998419 L 111.800049 27.521923 L 107.389511 27.521923 Z"/>
        </g>
        <path id="path2" fill="#000000" fill-rule="evenodd" stroke="none" d="M 30.644907 40.39645 C 19.727678 40.39645 10.9 31.568771 10.9 20.651543 C 10.9 9.727701 19.727678 0.900024 30.644907 0.900024 C 41.568748 0.900024 50.396427 9.727701 50.396427 20.651543 C 50.396427 31.568771 41.568748 40.39645 30.644907 40.39645 Z M 15.303921 25.029013 L 14.688959 25.029013 L 15.303921 25.029013 Z M 15.303921 20.88298 L 14.688959 20.88298 L 15.303921 20.88298 Z M 15.303921 16.730333 L 14.688959 16.730333 L 15.303921 16.730333 Z M 17.591845 25.029013 L 16.666094 25.029013 L 17.591845 25.029013 Z M 17.591845 20.88298 L 16.666094 20.88298 L 17.591845 20.88298 Z M 17.591845 16.730333 L 16.666094 16.730333 L 17.591845 16.730333 Z M 20.236841 25.029013 L 19.62188 24.414051 L 19.000305 25.029013 L 19.62188 25.650589 L 20.236841 25.029013 Z M 20.236841 20.876368 L 19.62188 20.261406 L 19.000305 20.876368 L 19.62188 21.497942 L 20.236841 20.876368 Z M 20.236841 16.730333 L 19.62188 16.115372 L 19.000305 16.730333 L 19.62188 17.345295 L 20.236841 16.730333 Z M 23.01409 25.029013 C 23.01409 24.605814 22.663628 24.261965 22.240427 24.261965 C 21.810616 24.261965 21.466764 24.605814 21.466764 25.029013 C 21.466764 25.458824 21.810616 25.802675 22.240427 25.802675 C 22.663628 25.802675 23.01409 25.458824 23.01409 25.029013 Z M 23.01409 20.88298 C 23.01409 20.453167 22.663628 20.109318 22.240427 20.109318 C 21.810616 20.109318 21.466764 20.453167 21.466764 20.88298 C 21.466764 21.306179 21.810616 21.65003 22.240427 21.65003 C 22.663628 21.65003 23.01409 21.306179 23.01409 20.88298 Z M 23.01409 16.730333 C 23.01409 16.307133 22.663628 15.956673 22.240427 15.956673 C 21.810616 15.956673 21.466764 16.307133 21.466764 16.730333 C 21.466764 17.160145 21.810616 17.503996 22.240427 17.503996 C 22.663628 17.503996 23.01409 17.160145 23.01409 16.730333 Z M 26.234373 25.029013 C 26.234373 24.519852 25.8244 24.103264 25.308624 24.103264 C 24.799463 24.103264 24.382875 24.519852 24.382875 25.029013 C 24.382875 25.544788 24.799463 25.954762 25.308624 25.954762 C 25.8244 25.954762 26.234373 25.544788 26.234373 25.029013 Z M 26.234373 20.88298 C 26.234373 20.367205 25.8244 19.957232 25.308624 19.957232 C 24.799463 19.957232 24.382875 20.367205 24.382875 20.88298 C 24.382875 21.392141 24.799463 21.808729 25.308624 21.808729 C 25.8244 21.808729 26.234373 21.392141 26.234373 20.88298 Z M 26.234373 16.730333 C 26.234373 16.221172 25.8244 15.804583 25.308624 15.804583 C 24.799463 15.804583 24.382875 16.221172 24.382875 16.730333 C 24.382875 17.246109 24.799463 17.656082 25.308624 17.656082 C 25.8244 17.656082 26.234373 17.246109 26.234373 16.730333 Z M 29.606745 25.029013 C 29.606745 24.433887 29.124033 23.951178 28.522297 23.951178 C 27.927172 23.951178 27.44446 24.433887 27.44446 25.029013 C 27.44446 25.624138 27.927172 26.10685 28.522297 26.10685 C 29.124033 26.10685 29.606745 25.624138 29.606745 25.029013 Z M 29.606745 20.88298 C 29.606745 20.281242 29.124033 19.798531 28.522297 19.798531 C 27.927172 19.798531 27.44446 20.281242 27.44446 20.88298 C 27.44446 21.478104 27.927172 21.960815 28.522297 21.960815 C 29.124033 21.960815 29.606745 21.478104 29.606745 20.88298 Z M 29.606745 16.730333 C 29.606745 16.135208 29.124033 15.652496 28.522297 15.652496 C 27.927172 15.652496 27.44446 16.135208 27.44446 16.730333 C 27.44446 17.325457 27.927172 17.80817 28.522297 17.80817 C 29.124033 17.80817 29.606745 17.325457 29.606745 16.730333 Z M 33.580853 33.334305 C 33.580853 32.646606 33.032017 32.097771 32.344318 32.097771 C 31.663231 32.097771 31.114395 32.646606 31.114395 33.334305 C 31.114395 34.015392 31.663231 34.564228 32.344318 34.564228 C 33.032017 34.564228 33.580853 34.015392 33.580853 33.334305 Z M 33.580853 29.18166 C 33.580853 28.493961 33.032017 27.945122 32.344318 27.945122 C 31.663231 27.945122 31.114395 28.493961 31.114395 29.18166 C 31.114395 29.862747 31.663231 30.418194 32.344318 30.418194 C 33.032017 30.418194 33.580853 29.862747 33.580853 29.18166 Z M 33.580853 25.029013 C 33.580853 24.347927 33.032017 23.799089 32.344318 23.799089 C 31.663231 23.799089 31.114395 24.347927 31.114395 25.029013 C 31.114395 25.7101 31.663231 26.265549 32.344318 26.265549 C 33.032017 26.265549 33.580853 25.7101 33.580853 25.029013 Z M 33.580853 20.88298 C 33.580853 20.201893 33.032017 19.646442 32.344318 19.646442 C 31.663231 19.646442 31.114395 20.201893 31.114395 20.88298 C 31.114395 21.564066 31.663231 22.112904 32.344318 22.112904 C 33.032017 22.112904 33.580853 21.564066 33.580853 20.88298 Z M 33.580853 16.730333 C 33.580853 16.049246 33.032017 15.50041 32.344318 15.50041 C 31.663231 15.50041 31.114395 16.049246 31.114395 16.730333 C 31.114395 17.411421 31.663231 17.966869 32.344318 17.966869 C 33.032017 17.966869 33.580853 17.411421 33.580853 16.730333 Z M 33.580853 12.584301 C 33.580853 11.896601 33.032017 11.347763 32.344318 11.347763 C 31.663231 11.347763 31.114395 11.896601 31.114395 12.584301 C 31.114395 13.265387 31.663231 13.814224 32.344318 13.814224 C 33.032017 13.814224 33.580853 13.265387 33.580853 12.584301 Z M 33.580853 8.431652 C 33.580853 7.750568 33.032017 7.195118 32.344318 7.195118 C 31.663231 7.195118 31.114395 7.750568 31.114395 8.431652 C 31.114395 9.112741 31.663231 9.661577 32.344318 9.661577 C 33.032017 9.661577 33.580853 9.112741 33.580853 8.431652 Z M 37.673988 29.18166 C 37.673988 28.427837 37.065639 27.819485 36.311813 27.819485 C 35.557991 27.819485 34.949642 28.427837 34.949642 29.18166 C 34.949642 29.935484 35.557991 30.543835 36.311813 30.543835 C 37.065639 30.543835 37.673988 29.935484 37.673988 29.18166 Z M 37.673988 25.029013 C 37.673988 24.275188 37.065639 23.66684 36.311813 23.66684 C 35.557991 23.66684 34.949642 24.275188 34.949642 25.029013 C 34.949642 25.782839 35.557991 26.391186 36.311813 26.391186 C 37.065639 26.391186 37.673988 25.782839 37.673988 25.029013 Z M 37.673988 20.88298 C 37.673988 20.129156 37.065639 19.520805 36.311813 19.520805 C 35.557991 19.520805 34.949642 20.129156 34.949642 20.88298 C 34.949642 21.636805 35.557991 22.245153 36.311813 22.245153 C 37.065639 22.245153 37.673988 21.636805 37.673988 20.88298 Z M 37.673988 16.730333 C 37.673988 15.976509 37.065639 15.36816 36.311813 15.36816 C 35.557991 15.36816 34.949642 15.976509 34.949642 16.730333 C 34.949642 17.484158 35.557991 18.092506 36.311813 18.092506 C 37.065639 18.092506 37.673988 17.484158 37.673988 16.730333 Z M 37.673988 12.577686 C 37.673988 11.830477 37.065639 11.215513 36.311813 11.215513 C 35.557991 11.215513 34.949642 11.830477 34.949642 12.577686 C 34.949642 13.331511 35.557991 13.939861 36.311813 13.939861 C 37.065639 13.939861 37.673988 13.331511 37.673988 12.577686 Z M 42.097748 25.042238 C 42.097748 24.195841 41.410046 23.514751 40.570259 23.514751 C 39.723862 23.514751 39.042774 24.195841 39.042774 25.042238 C 39.042774 25.888638 39.723862 26.569725 40.570259 26.569725 C 41.410046 26.569725 42.097748 25.888638 42.097748 25.042238 Z M 42.097748 20.889593 C 42.097748 20.049805 41.410046 19.362106 40.570259 19.362106 C 39.723862 19.362106 39.042774 20.049805 39.042774 20.889593 C 39.042774 21.735991 39.723862 22.423691 40.570259 22.423691 C 41.410046 22.423691 42.097748 21.735991 42.097748 20.889593 Z M 42.097748 16.743559 C 42.097748 15.89716 41.410046 15.216072 40.570259 15.216072 C 39.723862 15.216072 39.042774 15.89716 39.042774 16.743559 C 39.042774 17.589956 39.723862 18.271046 40.570259 18.271046 C 41.410046 18.271046 42.097748 17.589956 42.097748 16.743559 Z M 46.581017 20.922655 C 46.581017 19.996906 45.833805 19.24308 44.908058 19.24308 C 43.982307 19.24308 43.228481 19.996906 43.228481 20.922655 C 43.228481 21.848404 43.982307 22.595615 44.908058 22.595615 C 45.833805 22.595615 46.581017 21.848404 46.581017 20.922655 Z"/>
    </g>
</svg>
